<?xml version="1.0" standalone="no"?>
<!DOCTYPE svg PUBLIC "-//W3C//DTD SVG 20010904//EN"
 "http://www.w3.org/TR/2001/REC-SVG-20010904/DTD/svg10.dtd">
<svg version="1.0" xmlns="http://www.w3.org/2000/svg"
 width="64.000000pt" height="64.000000pt" viewBox="0 0 64.000000 64.000000"
 preserveAspectRatio="xMidYMid meet">

<g transform="translate(0.000000,64.000000) scale(0.100000,-0.100000)"
fill="#000000" stroke="none">
<path d="M31 562 c-22 -17 -22 -21 -19 -250 2 -194 6 -234 18 -242 8 -6 135
-10 292 -10 238 0 279 2 292 16 14 13 16 46 15 222 -1 114 -4 197 -6 185 -4
-22 -9 -23 -126 -25 l-122 -2 120 -6 120 -5 0 -120 c1 -68 -4 -126 -10 -134
-7 -11 -7 -13 2 -8 7 5 11 -4 10 -28 -1 -29 -3 -32 -16 -22 -12 10 -13 9 -7
-1 5 -9 0 -22 -15 -38 -27 -28 -52 -32 -42 -7 7 17 6 17 -11 0 -10 -9 -22 -14
-27 -11 -6 3 -2 12 8 20 17 13 17 14 -1 7 -15 -5 -17 -3 -11 8 4 8 -5 2 -22
-13 -33 -31 -53 -37 -32 -11 13 17 12 17 -6 2 -17 -13 -52 -17 -207 -18 -178
-2 -187 -2 -197 18 -7 12 -11 86 -11 185 l0 166 168 3 167 3 -167 2 -168 2 0
49 c0 29 5 53 13 58 6 4 122 10 257 13 l245 6 -241 2 c-217 2 -244 0 -263 -16z
m581 -469 c-6 -9 -17 -18 -27 -19 -16 -2 -15 -1 1 17 21 24 38 25 26 2z m-128
-8 c-4 -8 -11 -15 -16 -15 -6 0 -5 6 2 15 7 8 14 15 16 15 2 0 1 -7 -2 -15z"/>
<path d="M565 561 c17 -3 35 -16 42 -31 9 -17 13 -20 13 -8 0 25 -28 48 -58
47 -27 -1 -27 -1 3 -8z"/>
<path d="M53 533 c-15 -6 -17 -39 -3 -48 20 -12 51 6 48 28 -3 22 -22 30 -45
20z m37 -12 c0 -5 -6 -14 -14 -20 -16 -13 -32 2 -21 19 8 12 35 13 35 1z"/>
<path d="M127 534 c-10 -11 -9 -42 3 -49 20 -12 51 6 48 28 -3 22 -36 35 -51
21z m37 -13 c3 -5 -1 -12 -10 -15 -20 -8 -29 -1 -19 13 8 13 22 14 29 2z"/>
<path d="M204 525 c-8 -21 2 -45 19 -45 8 0 20 7 27 15 10 12 10 18 0 30 -7 8
-19 15 -27 15 -7 0 -16 -7 -19 -15z m36 -4 c0 -5 -6 -13 -13 -19 -10 -8 -13
-6 -14 9 -1 10 5 19 13 19 8 0 14 -4 14 -9z"/>
<path d="M381 514 c0 -11 3 -14 6 -6 3 7 2 16 -1 19 -3 4 -6 -2 -5 -13z"/>
<path d="M471 514 c0 -11 3 -14 6 -6 3 7 2 16 -1 19 -3 4 -6 -2 -5 -13z"/>
<path d="M561 514 c0 -11 3 -14 6 -6 3 7 2 16 -1 19 -3 4 -6 -2 -5 -13z"/>
<path d="M435 389 c-4 -6 -5 -12 -2 -15 2 -3 7 2 10 11 7 17 1 20 -8 4z"/>
<path d="M460 307 c-25 -33 -46 -64 -48 -69 -2 -4 17 -8 41 -8 39 0 46 -3 50
-22 l4 -23 2 23 c0 13 7 22 18 22 16 0 16 1 0 13 -11 8 -17 30 -19 68 l-3 57
-45 -61z m40 -17 c0 -48 -1 -50 -28 -50 -40 0 -45 10 -19 34 12 12 24 26 26
31 17 49 21 46 21 -15z"/>
<path d="M109 343 c-13 -16 -12 -17 4 -4 9 7 17 15 17 17 0 8 -8 3 -21 -13z"/>
<path d="M136 298 l-45 -63 49 -3 c41 -3 49 -6 53 -25 l4 -22 2 22 c0 12 9 24
19 26 16 4 16 5 0 6 -15 1 -18 11 -18 61 0 33 -4 60 -9 60 -6 0 -30 -28 -55
-62z m54 -13 c0 -45 0 -45 -35 -45 -43 0 -46 20 -9 49 15 12 24 21 20 21 -4 0
-4 5 -1 10 14 23 25 7 25 -35z"/>
<path d="M287 342 c-25 -28 -23 -116 4 -143 43 -43 89 -4 89 76 0 73 -53 111
-93 67z m74 -15 c24 -44 0 -137 -36 -137 -33 0 -52 55 -32 94 6 12 6 16 -1 12
-11 -6 -9 25 2 43 11 17 56 9 67 -12z"/>
<path d="M100 150 c-9 -6 -10 -10 -3 -10 6 0 15 5 18 10 8 12 4 12 -15 0z"/>
</g>
</svg>
